<svg width="102" height="107" viewBox="0 0 102 107" fill="none" xmlns="http://www.w3.org/2000/svg">
<path d="M86.1168 10.9206H62.2259L47.4677 24.9934L44.6901 22.1487V4.75194H33.9625L32.8812 6.84086V3H23.2136L16.3449 9.61355L16.3416 17.961L3 31.2977V41.2434L11.1627 49.4044H18.8378V54.9154L14.6027 59.3305V70.8056H18.8313L18.8231 74.6972L14.6027 79.0533V89.5994L18.7479 93.7461L17.2691 93.7134V100.435H38.3987V104.325H50.7998H58.2934L65.3126 97.3056L87.7771 74.6972V53.3271L88.7782 53.5806L98.9987 43.3585V23.8041L86.1168 10.9222V10.9206ZM50.3368 103.86H50.664L50.3368 103.862V103.86Z" fill="white" stroke="white" stroke-width="4.0895" stroke-miterlimit="10"/>
<path d="M96.2173 24.9568V42.208L88.0104 50.4148H84.994V73.5516L63.3393 95.3453V69.1054L58.2372 64.0001V59.2023L47.4688 48.4322V28.8402L63.3393 13.7041H84.9646L96.2173 24.9568Z" fill="#D2E2FF" stroke="#004DCD" stroke-width="4.0895" stroke-miterlimit="10"/>
<path d="M50.665 101.544H50.3359" stroke="#004DCD" stroke-width="4.0895" stroke-miterlimit="10"/>
<path d="M63.3386 69.1051V95.345L57.1405 101.545H51.3187L47.6169 97.6564H26.5903L17.384 88.4501V80.1828L21.6011 75.8283L21.6191 68.0222L17.384 68.0238V60.4517L21.6207 56.0367V46.6259H12.313L5.78125 40.0942V32.4517L19.1212 19.115H30.0974V14.2501L36.976 7.53516H41.908V23.283L47.4664 28.9756V28.8415V48.4319L58.2349 59.202V64.0014L63.3386 69.1051Z" fill="#D2E2FF" stroke="#004DCD" stroke-width="4.0895" stroke-miterlimit="10"/>
<path d="M50.3394 101.544H39.1914" stroke="#004DCD" stroke-width="4.0895" stroke-miterlimit="10"/>
<path d="M26.5922 97.6543H17.7344" stroke="#004DCD" stroke-width="4.0895" stroke-miterlimit="10"/>
<path d="M30.1012 5.7832V19.115H19.125L19.1283 10.8002L24.3383 5.7832H30.1012Z" fill="#D2E2FF" stroke="#004DCD" stroke-width="4.0895" stroke-miterlimit="10"/>
<path d="M18.4844 89.5508H22.9943L31.0997 97.6546" stroke="#004DCD" stroke-width="4.0895" stroke-miterlimit="10"/>
<path d="M36.2372 53.1816L29.4961 60.4511V68.02H41.2297V75.7246L35.4799 81.9636L35.4848 88.7898L43.6703 97.6542" stroke="#004DCD" stroke-width="4.0895" stroke-miterlimit="10"/>
<path d="M26.393 38.2976C29.7333 38.2976 32.4422 35.5887 32.4422 32.2484C32.4422 28.9081 29.7333 26.1992 26.393 26.1992C23.0527 26.1992 20.3438 28.9081 20.3438 32.2484C20.3438 35.5887 23.0527 38.2976 26.393 38.2976Z" fill="#004DCD"/>
<path d="M25.0841 32.4603C26.2848 32.4603 27.2581 31.487 27.2581 30.2863C27.2581 29.0856 26.2848 28.1123 25.0841 28.1123C23.8835 28.1123 22.9102 29.0856 22.9102 30.2863C22.9102 31.487 23.8835 32.4603 25.0841 32.4603Z" fill="white"/>
<path d="M7.07422 39.2913H13.1005V33.2732L7.07422 33.2617V39.2896V39.2913Z" fill="#004DCD"/>
<path d="M84.9932 50.4138H78.6953V41.3809" stroke="#004DCD" stroke-width="4.0895" stroke-miterlimit="10"/>
</svg>
